<?xml version="1.0" encoding="utf-8"?>
<!-- Generator: Adobe Illustrator 22.1.0, SVG Export Plug-In . SVG Version: 6.00 Build 0)  -->
<svg version="1.1" id="Layer_1" xmlns="http://www.w3.org/2000/svg" xmlns:xlink="http://www.w3.org/1999/xlink" x="0px" y="0px"
	 viewBox="0 0 45.5 45.5" style="enable-background:new 0 0 45.5 45.5;" xml:space="preserve">
<style type="text/css">
	.st0{fill:#FFFFFF;}
	.st1{fill:#C02033;}
	.st2{fill:#213064;}
</style>
<g>
	<g>
		<g>
			<path class="st0" d="M1.5,27.7H44c0.3-1.1,0.4-2.2,0.5-3.4H1C1.1,25.5,1.2,26.6,1.5,27.7z"/>
			<path class="st0" d="M4.4,34.5h36.8c0.7-1.1,1.3-2.2,1.8-3.4H2.6C3.1,32.3,3.7,33.4,4.4,34.5z"/>
			<path class="st0" d="M11.1,41.2h23.3c1.5-1,2.9-2.1,4.1-3.4H7C8.2,39.1,9.6,40.2,11.1,41.2z"/>
			<path class="st0" d="M34.4,4.2H11.1C9.6,5.1,8.2,6.3,7,7.6h31.5C37.3,6.3,35.9,5.1,34.4,4.2z"/>
			<g>
				<path class="st1" d="M2.6,31.1H43c0.4-1.1,0.8-2.2,1.1-3.4H1.5C1.8,28.9,2.1,30,2.6,31.1z"/>
				<path class="st1" d="M7,37.8h31.5c1-1,1.9-2.2,2.7-3.4H4.4C5.1,35.7,6,36.8,7,37.8z"/>
				<path class="st1" d="M22.8,44.6c4.3,0,8.3-1.2,11.6-3.4H11.1C14.5,43.3,18.5,44.6,22.8,44.6z"/>
				<path class="st1" d="M1.5,17.7H44c-0.3-1.2-0.6-2.3-1.1-3.4H2.6C2.1,15.4,1.8,16.5,1.5,17.7z"/>
				<path class="st1" d="M0.9,22.7c0,0.6,0,1.1,0.1,1.7h43.6c0-0.6,0.1-1.1,0.1-1.7c0-0.6,0-1.1-0.1-1.7H1
					C0.9,21.6,0.9,22.1,0.9,22.7z"/>
				<path class="st1" d="M7,7.6c-1,1-1.9,2.2-2.7,3.4h36.8c-0.8-1.2-1.7-2.3-2.7-3.4H7z"/>
				<path class="st1" d="M22.8,0.8c-4.3,0-8.3,1.2-11.6,3.4h23.3C31,2.1,27.1,0.8,22.8,0.8z"/>
			</g>
			<path class="st0" d="M1,21h43.6c-0.1-1.2-0.3-2.3-0.5-3.4H1.5C1.2,18.7,1.1,19.9,1,21z"/>
			<path class="st0" d="M2.6,14.3H43c-0.5-1.2-1.1-2.3-1.8-3.4H4.4C3.7,12,3.1,13.1,2.6,14.3z"/>
		</g>
		<g>
			<path class="st2" d="M22.8,0.8c-12.1,0-21.8,9.8-21.8,21.9c0,0.6,0,1.1,0.1,1.7h21.8V0.8z"/>
			<g>
				<path class="st0" d="M2.2,15.2c0,0.1-0.1,0.2-0.1,0.2h0L2.2,15.2z"/>
				<path class="st0" d="M2,15.9c-0.1,0.2-0.1,0.5-0.2,0.7L2,15.9L2,15.9z"/>
				<polygon class="st0" points="3.1,23.1 2.4,22.7 1.8,23.1 2,22.4 1.4,21.9 2.2,21.9 2.4,21.2 2.7,21.9 3.5,21.9 2.8,22.4 				"/>
				<polygon class="st0" points="6,19.9 5.3,19.4 4.7,19.9 4.9,19.1 4.3,18.6 5.1,18.6 5.3,17.9 5.6,18.6 6.4,18.6 5.7,19.1 				"/>
				<polygon class="st0" points="5.8,12.4 6,13.2 5.4,12.7 4.8,13.2 5,12.4 4.4,12 5.2,12 5.4,11.2 5.6,12 6.4,12 				"/>
				<polygon class="st0" points="9,23.1 8.4,22.7 7.7,23.1 8,22.4 7.3,21.9 8.1,21.9 8.4,21.2 8.6,21.9 9.4,21.9 8.8,22.4 				"/>
				<polygon class="st0" points="9.1,15.7 8.8,15.9 9,16.6 8.4,16.2 7.7,16.6 8,15.9 7.7,15.7 7.3,15.4 8.1,15.4 8.4,14.6 8.6,15.4 
					9.4,15.4 				"/>
				<polygon class="st0" points="8.8,9.1 9,9.8 8.4,9.3 7.7,9.8 8,9.1 7.3,8.6 8.1,8.6 8.4,7.8 8.6,8.6 9.4,8.6 				"/>
				<polygon class="st0" points="12,20.1 11.3,19.6 10.7,20.1 10.9,19.3 10.3,18.9 11.1,18.9 11.3,18.1 11.6,18.9 12.4,18.9 
					11.7,19.3 				"/>
				<polygon class="st0" points="11.8,12.7 12,13.4 11.4,13 10.7,13.4 11,12.7 10.3,12.2 11.1,12.2 11.4,11.4 11.6,12.2 12.4,12.2 
									"/>
				<polygon class="st0" points="11.8,5.9 12.1,6.7 11.4,6.2 10.8,6.7 11,5.9 10.4,5.5 11.2,5.5 11.4,4.7 11.7,5.5 12.5,5.5 				"/>
				<polygon class="st0" points="15,23.1 14.4,22.7 13.7,23.1 14,22.4 13.3,21.9 14.1,21.9 14.4,21.2 14.6,21.9 15.4,21.9 
					14.8,22.4 				"/>
				<polygon class="st0" points="15.1,15.7 14.8,15.9 15,16.6 14.4,16.2 13.7,16.6 14,15.9 13.7,15.7 13.3,15.4 14.1,15.4 
					14.4,14.6 14.6,15.4 15.4,15.4 				"/>
				<polygon class="st0" points="14.8,9.1 15,9.8 14.4,9.3 13.7,9.8 14,9.1 13.3,8.6 14.1,8.6 14.4,7.8 14.6,8.6 15.4,8.6 				"/>
				<polygon class="st0" points="17.9,20.1 17.3,19.6 16.7,20.1 16.9,19.3 16.3,18.9 17.1,18.9 17.3,18.1 17.5,18.9 18.3,18.9 
					17.7,19.3 				"/>
				<polygon class="st0" points="17.8,12.7 18,13.4 17.4,13 16.7,13.4 17,12.7 16.3,12.2 17.1,12.2 17.4,11.4 17.6,12.2 18.4,12.2 
									"/>
				<polygon class="st0" points="17.8,5.9 18.1,6.7 17.4,6.2 16.8,6.7 17,5.9 16.4,5.5 17.2,5.5 17.4,4.7 17.7,5.5 18.5,5.5 				"/>
				<polygon class="st0" points="21,23.1 20.3,22.7 19.7,23.1 19.9,22.4 19.3,21.9 20.1,21.9 20.3,21.2 20.6,21.9 21.4,21.9 
					20.7,22.4 				"/>
				<polygon class="st0" points="21,15.7 20.7,15.9 21,16.6 20.3,16.2 19.7,16.6 19.9,15.9 19.7,15.7 19.3,15.4 20.1,15.4 
					20.3,14.6 20.6,15.4 21.4,15.4 				"/>
				<polygon class="st0" points="20.7,9.1 21,9.8 20.3,9.3 19.7,9.8 19.9,9.1 19.3,8.6 20.1,8.6 20.3,7.8 20.6,8.6 21.4,8.6 				"/>
				<polygon class="st0" points="20.7,2.4 21,3.1 20.3,2.7 19.7,3.1 19.9,2.4 19.3,1.9 20.1,1.9 20.3,1.2 20.6,1.9 21.4,1.9 				"/>
				<path class="st0" d="M14.4,2.7L15,3.1l-0.2-0.8l0.1-0.1c-0.3,0.1-0.7,0.3-1,0.4l-0.1,0.4L14.4,2.7z"/>
				<polygon class="st0" points="14.4,7.8 14.1,8.6 13.3,8.6 14,9.1 13.7,9.8 14.4,9.3 15,9.8 14.8,9.1 15.4,8.6 14.6,8.6 				"/>
				<polygon class="st0" points="14.4,14.6 14.1,15.4 13.3,15.4 13.7,15.7 14,15.9 13.7,16.6 14.4,16.2 15,16.6 14.8,15.9 
					15.1,15.7 15.4,15.4 14.6,15.4 				"/>
				<polygon class="st0" points="14.6,21.9 14.4,21.2 14.1,21.9 13.3,21.9 14,22.4 13.7,23.1 14.4,22.7 15,23.1 14.8,22.4 
					15.4,21.9 				"/>
				<polygon class="st0" points="8.4,7.8 8.1,8.6 7.3,8.6 8,9.1 7.7,9.8 8.4,9.3 9,9.8 8.8,9.1 9.4,8.6 8.6,8.6 				"/>
				<polygon class="st0" points="8.4,14.6 8.1,15.4 7.3,15.4 7.7,15.7 8,15.9 7.7,16.6 8.4,16.2 9,16.6 8.8,15.9 9.1,15.7 9.4,15.4 
					8.6,15.4 				"/>
				<polygon class="st0" points="8.6,21.9 8.4,21.2 8.1,21.9 7.3,21.9 8,22.4 7.7,23.1 8.4,22.7 9,23.1 8.8,22.4 9.4,21.9 				"/>
				<path class="st0" d="M1.8,16.6L1.8,16.6C1.8,16.6,1.8,16.6,1.8,16.6L1.8,16.6z"/>
				<path class="st0" d="M2.4,14.6l-0.2,0.5C2.3,15,2.4,14.8,2.4,14.6L2.4,14.6z"/>
				<path class="st0" d="M3.1,16.6l-0.2-0.8l0.3-0.2l0.4-0.3H2.7l-0.2-0.7c-0.1,0.2-0.1,0.3-0.2,0.5l-0.1,0.2h0
					c-0.1,0.2-0.1,0.3-0.2,0.5l0,0l-0.2,0.7c0,0,0,0,0,0.1l0.6-0.5L3.1,16.6z"/>
				<polygon class="st0" points="2.7,21.9 2.4,21.2 2.2,21.9 1.4,21.9 2,22.4 1.8,23.1 2.4,22.7 3.1,23.1 2.8,22.4 3.5,21.9 				"/>
				<polygon class="st0" points="17.4,11.4 17.1,12.2 16.3,12.2 17,12.7 16.7,13.4 17.4,13 18,13.4 17.8,12.7 18.4,12.2 17.6,12.2 
									"/>
				<polygon class="st0" points="17.5,18.9 17.3,18.1 17.1,18.9 16.3,18.9 16.9,19.3 16.7,20.1 17.3,19.6 17.9,20.1 17.7,19.3 
					18.3,18.9 				"/>
				<polygon class="st0" points="11.4,11.4 11.1,12.2 10.3,12.2 11,12.7 10.7,13.4 11.4,13 12,13.4 11.8,12.7 12.4,12.2 11.6,12.2 
									"/>
				<polygon class="st0" points="11.6,18.9 11.3,18.1 11.1,18.9 10.3,18.9 10.9,19.3 10.7,20.1 11.3,19.6 12,20.1 11.7,19.3 
					12.4,18.9 				"/>
				<polygon class="st0" points="5.4,11.2 5.2,12 4.4,12 5,12.4 4.8,13.2 5.4,12.7 6,13.2 5.8,12.4 6.4,12 5.6,12 				"/>
				<polygon class="st0" points="5.6,18.6 5.3,17.9 5.1,18.6 4.3,18.6 4.9,19.1 4.7,19.9 5.3,19.4 6,19.9 5.7,19.1 6.4,18.6 				"/>
				<polygon class="st0" points="20.3,7.8 20.1,8.6 19.3,8.6 19.9,9.1 19.7,9.8 20.3,9.3 21,9.8 20.7,9.1 21.4,8.6 20.6,8.6 				"/>
				<polygon class="st0" points="11.4,4.7 11.2,5.5 10.4,5.5 11,5.9 10.8,6.7 11.4,6.2 12.1,6.7 11.8,5.9 12.5,5.5 11.7,5.5 				"/>
				<polygon class="st0" points="17.4,4.7 17.2,5.5 16.4,5.5 17,5.9 16.8,6.7 17.4,6.2 18.1,6.7 17.8,5.9 18.5,5.5 17.7,5.5 				"/>
				<polygon class="st0" points="20.3,1.2 20.1,1.9 19.3,1.9 19.9,2.4 19.7,3.1 20.3,2.7 21,3.1 20.7,2.4 21.4,1.9 20.6,1.9 				"/>
				<polygon class="st0" points="20.3,14.6 20.1,15.4 19.3,15.4 19.7,15.7 19.9,15.9 19.7,16.6 20.3,16.2 21,16.6 20.7,15.9 
					21,15.7 21.4,15.4 20.6,15.4 				"/>
				<polygon class="st0" points="20.6,21.9 20.3,21.2 20.1,21.9 19.3,21.9 19.9,22.4 19.7,23.1 20.3,22.7 21,23.1 20.7,22.4 
					21.4,21.9 				"/>
			</g>
		</g>
	</g>
</g>
</svg>
