<svg xmlns="http://www.w3.org/2000/svg" viewBox="0 0 117 117">
  <defs>
    <style>
      .cls-1 {
        fill: #fff;
        stroke: #ccc;
      }

      .cls-2 {
        fill: #707070;
        font-size: 10px;
        font-family: Montserrat-Bold, Montserrat;
        font-weight: 700;
        letter-spacing: 0.1em;
      }

      .cls-3, .cls-5 {
        fill: none;
      }

      .cls-3 {
        stroke: #ec6529;
        stroke-linecap: round;
        stroke-linejoin: round;
        stroke-miterlimit: 10;
        stroke-width: 2px;
      }

      .cls-4 {
        stroke: none;
      }
    </style>
  </defs>
  <g id="Group_1007" data-name="Group 1007" transform="translate(-199 -432)">
    <g id="Group_638" data-name="Group 638" transform="translate(-7 -24)">
      <g id="Rectangle_1412" data-name="Rectangle 1412" class="cls-1" transform="translate(206 456)">
        <rect class="cls-4" width="117" height="117" rx="5"/>
        <rect class="cls-5" x="0.5" y="0.5" width="116" height="116" rx="4.5"/>
      </g>
      <text id="BUILD_A_BETTER_IMMUNE_SYSTEM" data-name="BUILD A BETTER IMMUNE SYSTEM" class="cls-2" transform="translate(206 529.938)"><tspan x="10.208" y="10">BUILD A BETTER </tspan><tspan x="8.283" y="24">IMMUNE SYSTEM</tspan></text>
    </g>
    <g id="Group_683" data-name="Group 683" transform="translate(229.478 440.8)">
      <ellipse id="Ellipse_389" data-name="Ellipse 389" class="cls-3" cx="15.392" cy="11.946" rx="15.392" ry="11.946" transform="matrix(0.866, -0.5, 0.5, 0.866, -3.477, 42.58)"/>
      <path id="Path_573" data-name="Path 573" class="cls-3" d="M9.36,59.06c-.766-2.833,1.914-6.509,6.279-8.423,4.671-2.068,9.5-1.378,10.72,1.608,1.072,2.527-.766,5.82-4.288,8.04" transform="translate(-2.211 -13.302)"/>
      <path id="Path_574" data-name="Path 574" class="cls-3" d="M18.6,65.783a9.751,9.751,0,0,1-6.2-.383" transform="translate(-2.954 -17.039)"/>
      <ellipse id="Ellipse_390" data-name="Ellipse 390" class="cls-3" cx="10.567" cy="13.707" rx="10.567" ry="13.707" transform="translate(28.198 34.632) rotate(-69.109)"/>
      <path id="Path_575" data-name="Path 575" class="cls-3" d="M51,32.984c1.378-2.221,5.437-2.68,9.266-1,4.135,1.761,6.585,5.36,5.437,7.964-1,2.221-4.288,3.063-7.811,2.068" transform="translate(-12.996 -8.974)"/>
      <path id="Path_576" data-name="Path 576" class="cls-3" d="M53.816,41.341A8.6,8.6,0,0,1,50.6,36.9" transform="translate(-12.902 -8.363)"/>
      <ellipse id="Ellipse_391" data-name="Ellipse 391" class="cls-3" cx="8.27" cy="10.72" rx="8.27" ry="10.72" transform="translate(11.122 17.635) rotate(-80.317)"/>
      <path id="Path_577" data-name="Path 577" class="cls-3" d="M23.9,9.657c.842-1.838,3.905-2.6,7.121-1.761,3.369,1,5.667,3.446,5.054,5.59-.536,1.838-2.986,2.757-5.82,2.374" transform="translate(-6.647 -1.489)"/>
      <path id="Path_578" data-name="Path 578" class="cls-3" d="M27.14,16.41A6.892,6.892,0,0,1,24,13.5" transform="translate(-6.671 -2.881)"/>
      <g id="Group_682" data-name="Group 682" transform="translate(-0.13 17.497)">
        <line id="Line_122" data-name="Line 122" class="cls-3" x2="8.883" y2="8.806" transform="translate(2.297 1.838)"/>
        <line id="Line_123" data-name="Line 123" class="cls-3" x1="8.73" y2="8.653" transform="translate(2.374 1.914)"/>
        <line id="Line_124" data-name="Line 124" class="cls-3" x2="13.477" transform="translate(0 6.203)"/>
        <line id="Line_125" data-name="Line 125" class="cls-3" y2="12.482" transform="translate(6.739)"/>
      </g>
      <line id="Line_126" data-name="Line 126" class="cls-3" x2="7.887" y2="7.964" transform="translate(41.144 2.808)"/>
      <line id="Line_127" data-name="Line 127" class="cls-3" x1="7.734" y2="7.734" transform="translate(41.22 2.961)"/>
      <line id="Line_128" data-name="Line 128" class="cls-3" x2="11.869" transform="translate(39.153 6.79)"/>
      <line id="Line_129" data-name="Line 129" class="cls-3" y2="11.18" transform="translate(45.049 1.2)"/>
    </g>
  </g>
</svg>
