<svg xmlns="http://www.w3.org/2000/svg" viewBox="0 0 117 117">
  <defs>
    <style>
      .cls-1 {
        fill: #fff;
        stroke: #ccc;
      }

      .cls-2 {
        fill: #707070;
        font-size: 10px;
        font-family: Montserrat-Bold, Montserrat;
        font-weight: 700;
        letter-spacing: 0.1em;
      }

      .cls-3 {
        fill: #ec6529;
      }

      .cls-4 {
        stroke: none;
      }

      .cls-5 {
        fill: none;
      }
    </style>
  </defs>
  <g id="Group_636" data-name="Group 636" transform="translate(-207 -317)">
    <g id="Rectangle_1410" data-name="Rectangle 1410" class="cls-1" transform="translate(207 317)">
      <rect class="cls-4" width="117" height="117" rx="5"/>
      <rect class="cls-5" x="0.5" y="0.5" width="116" height="116" rx="4.5"/>
    </g>
    <text id="BUILDING_MUSCLE" data-name="BUILDING
MUSCLE" class="cls-2" transform="translate(218 392.938)"><tspan x="19.143" y="10">BUILDING</tspan><tspan x="23.628" y="24">MUSCLE</tspan></text>
    <g id="Group_615" data-name="Group 615" transform="translate(246 329.049)">
      <path id="Path_530" data-name="Path 530" class="cls-3" d="M36.737,35.462c.486-7.529-1.665-15.007-3.579-19.982a63.62,63.62,0,0,0-4.3-9.06A4.282,4.282,0,0,0,26.4,3.472,28.672,28.672,0,0,0,21.513.98c-3.806-1.469-6.63-1.365-8.4.31C10.756,3.534,9.66,5.53,9.867,7.216a3,3,0,0,0,.807,1.717,1.664,1.664,0,0,0,.031.59c.186.952,1.055,1.882,2.565,2.762,3.092,1.789,5.451.652,7.023-.093.145-.072.29-.145.434-.207.238-.1.341-.062.383-.041a1.751,1.751,0,0,1,.631.9c-.259,1.5-1.686,10.115-.714,15.866a12.193,12.193,0,0,0-6.909-.186A14.646,14.646,0,0,0,9.691,30.5a9.326,9.326,0,0,0-5.213-.362v-.021a.839.839,0,0,0-.827-.755H.838A.834.834,0,0,0,0,30.2V49.022a.838.838,0,1,0,1.676,0v-18H2.927a51.223,51.223,0,0,0,1.644,7.726c1.562,5.316,3.744,9.5,6.506,12.473H.838a.838.838,0,0,0,0,1.676H13.125a.837.837,0,0,0,.786-.548.818.818,0,0,0-.238-.921c-.01-.01-.021-.01-.021-.021a14.271,14.271,0,0,0,4.365-2.73c.321.021.641.031.941.031a14.946,14.946,0,0,0,2.751-.248c.424-.062.858-.134,1.314-.228,3.589-.745,6.257-2.441,7.747-4.933,2.058.31,5.368-.01,6.444-3.061A5.581,5.581,0,0,0,36.737,35.462Zm-1.107,4.23c-.993,2.813-4.944,1.913-5.109,1.872A.841.841,0,0,0,29.58,42c-2.886,5.668-11.677,4.954-11.76,4.954a.77.77,0,0,0-.269.021,8.035,8.035,0,0,1-3.93-1.417.835.835,0,0,0-1,1.334,8.937,8.937,0,0,0,3.175,1.469,13.435,13.435,0,0,1-3.475,1.789c-5.14-5.544-7.023-14.614-7.6-18.338a7.48,7.48,0,0,1,4.706.4.821.821,0,0,0,.879-.083,12.911,12.911,0,0,1,4.3-1.986,10.19,10.19,0,0,1,7.178.683c.031.021.062.031.093.052a12.69,12.69,0,0,1,2.006,1.262A.833.833,0,0,0,25.05,32a.829.829,0,0,0-.155-1.169,13.2,13.2,0,0,0-2-1.282c-1.448-5.688.5-16.466.517-16.579a.76.76,0,0,0-.021-.372,3.512,3.512,0,0,0-1.582-2.131,2.074,2.074,0,0,0-1.779.031c-.145.072-.3.145-.455.217-1.469.7-3.134,1.5-5.471.155-1.624-.941-1.81-1.593-1.769-1.738a.868.868,0,0,0,.114-.621.834.834,0,0,0-.4-.559,1.308,1.308,0,0,1-.517-.91c-.083-.641.165-2.079,2.741-4.509,2.586-2.451,9.019.91,11.284,2.41.041.031.093.052.145.083A2.6,2.6,0,0,1,27.243,6.9a.8.8,0,0,0,.114.31c.083.134,7.954,13.135,7.788,26.508a1.083,1.083,0,0,1-.114-.083.833.833,0,1,0-.941,1.376A4.094,4.094,0,0,1,35.631,39.692Z" transform="translate(0 0)"/>
      <path id="Path_531" data-name="Path 531" class="cls-3" d="M103.08,347.727c-4.54,4.478-12.4,2.782-12.473,2.762a.832.832,0,1,0-.362,1.624,19.754,19.754,0,0,0,3.992.393c2.979,0,7.043-.641,10.022-3.589a.833.833,0,0,0,.01-1.179A.846.846,0,0,0,103.08,347.727Z" transform="translate(-80.326 -311.592)"/>
      <path id="Path_532" data-name="Path 532" class="cls-3" d="M254.271,144.906a.84.84,0,0,0-.465,1.086,27.724,27.724,0,0,1,1.148,13.642.835.835,0,0,0,.672.972.783.783,0,0,0,.155.01.83.83,0,0,0,.817-.683,28.726,28.726,0,0,0-1.241-14.563A.847.847,0,0,0,254.271,144.906Z" transform="translate(-227.504 -129.912)"/>
    </g>
  </g>
</svg>
