<svg xmlns="http://www.w3.org/2000/svg" viewBox="0 0 117 117">
  <defs>
    <style>
      .cls-1 {
        fill: #fff;
        stroke: #ccc;
      }

      .cls-2 {
        fill: #707070;
        font-size: 10px;
        font-family: Montserrat-Bold, Montserrat;
        font-weight: 700;
        letter-spacing: 0.1em;
      }

      .cls-3 {
        fill: #ec6529;
      }

      .cls-4 {
        stroke: none;
      }

      .cls-5 {
        fill: none;
      }
    </style>
  </defs>
  <g id="Group_634" data-name="Group 634" transform="translate(-50 -456)">
    <g id="Rectangle_1411" data-name="Rectangle 1411" class="cls-1" transform="translate(50 456)">
      <rect class="cls-4" width="117" height="117" rx="5"/>
      <rect class="cls-5" x="0.5" y="0.5" width="116" height="116" rx="4.5"/>
    </g>
    <text id="EXERCISE_PERFORMANCE" data-name="EXERCISE &amp; PERFORMANCE" class="cls-2" transform="translate(59 529.938)"><tspan x="13.678" y="10">EXERCISE &amp; </tspan><tspan x="3.053" y="24">PERFORMANCE</tspan></text>
    <g id="Group_627" data-name="Group 627" transform="translate(86.695 468.873)">
      <path id="Path_536" data-name="Path 536" class="cls-3" d="M44.467,314H28.2a.9.9,0,0,0,0,1.8H44.467a.9.9,0,0,0,0-1.8Zm0,0" transform="translate(-23.687 -272.461)"/>
      <path id="Path_537" data-name="Path 537" class="cls-3" d="M14.6,234h7.227a.9.9,0,1,0,0-1.8H14.6a.9.9,0,1,0,0,1.8Zm0,0" transform="translate(-11.887 -201.488)"/>
      <path id="Path_538" data-name="Path 538" class="cls-3" d="M16.267,274a.9.9,0,0,0-.9-.9H.9a.9.9,0,1,0,0,1.8H15.354a.9.9,0,0,0,.913-.9Zm0,0" transform="translate(0 -236.974)"/>
      <path id="Path_539" data-name="Path 539" class="cls-3" d="M75.9,37.926H70.473a.9.9,0,1,0,0,1.8H75.9a6.159,6.159,0,0,1,6.261,5.427H67.23L38.323,16.245,51.956,2.612c.754,2.382,2.475,7,5.228,9.755,3.084,3.084,8.445,3.719,10.576,3.852v7.267H65.629a1.791,1.791,0,0,0-1.562-.9,1.813,1.813,0,1,0,0,3.627,1.836,1.836,0,0,0,1.562-.9H67.76v5.427H65.629a1.791,1.791,0,0,0-1.562-.9,1.813,1.813,0,1,0,0,3.627,1.836,1.836,0,0,0,1.562-.9H67.76v.9a.869.869,0,0,0,.265.635l1.813,1.813a.908.908,0,1,0,1.284-1.284l-1.549-1.549V15.332a.9.9,0,0,0-.9-.9c-.066,0-6.9-.04-10.2-3.349C55.079,7.695,53.306.733,53.279.653A.879.879,0,0,0,52.644,0a.888.888,0,0,0-.874.238L36.417,15.6h0l-1.231,1.231a3.124,3.124,0,0,0,.066,4.3L63.524,49.4a4.358,4.358,0,0,0,2.938,1.165H81.326a2.684,2.684,0,0,0,2.713-2.713V46.04a8.062,8.062,0,0,0-8.14-8.114Zm6.314,9.94a.877.877,0,0,1-.9.9H66.449a2.682,2.682,0,0,1-1.668-.635L36.509,19.859a1.3,1.3,0,0,1-.066-1.747l.6-.6L66.224,46.7a.891.891,0,0,0,.635.265H82.213Zm0,0" transform="translate(-29.812 0)"/>
      <path id="Path_540" data-name="Path 540" class="cls-3" d="M218.5,164.8v10.84a.9.9,0,0,0,1.8,0V164.8a.9.9,0,0,0-.9-.9.884.884,0,0,0-.9.9Zm0,0" transform="translate(-189.579 -142.226)"/>
      <path id="Path_541" data-name="Path 541" class="cls-3" d="M165.344,66.412a.9.9,0,0,0,.887-.781.908.908,0,0,0-.768-1.019A17.978,17.978,0,0,1,151.685,54.38a.906.906,0,0,0-1.641.768A19.831,19.831,0,0,0,165.2,66.4a.543.543,0,0,0,.146.013Zm0,0" transform="translate(-130.11 -46.751)"/>
    </g>
  </g>
</svg>
