<svg xmlns="http://www.w3.org/2000/svg" viewBox="0 0 117 125.938">
  <defs>
    <style>
      .cls-1 {
        fill: #fff;
        stroke: #ccc;
      }

      .cls-2 {
        fill: #707070;
        font-size: 10px;
        font-family: Montserrat-Bold, Montserrat;
        font-weight: 700;
        letter-spacing: 0.1em;
      }

      .cls-3, .cls-5 {
        fill: none;
      }

      .cls-3 {
        stroke: #ec6529;
        stroke-linecap: round;
        stroke-linejoin: round;
        stroke-miterlimit: 10;
        stroke-width: 2px;
      }

      .cls-4 {
        stroke: none;
      }
    </style>
  </defs>
  <g id="Group_645" data-name="Group 645" transform="translate(-207 -317)">
    <g id="Rectangle_1410" data-name="Rectangle 1410" class="cls-1" transform="translate(207 317)">
      <rect class="cls-4" width="117" height="117" rx="5"/>
      <rect class="cls-5" x="0.5" y="0.5" width="116" height="116" rx="4.5"/>
    </g>
    <text id="EYE_HEALTH" data-name="EYE HEALTH" class="cls-2" transform="translate(218 400.938)"><tspan x="10.693" y="10">EYE HEALTH</tspan></text>
    <g id="Group_693" data-name="Group 693" transform="translate(233.8 332.8)">
      <path id="Path_599" data-name="Path 599" class="cls-3" d="M1.2,39.91s30.6-29.8,60.476,0C61.676,39.91,34.762,71.069,1.2,39.91Z" transform="translate(0 -5.068)"/>
      <path id="Path_600" data-name="Path 600" class="cls-3" d="M45.991,28.4a14.755,14.755,0,1,1-20.266.561" transform="translate(-4.02 -5.412)"/>
      <line id="Line_137" data-name="Line 137" class="cls-3" x2="4.566" y2="11.054" transform="translate(16.419 5.766)"/>
      <line id="Line_138" data-name="Line 138" class="cls-3" x2="0.16" y2="12.496" transform="translate(32.039 1.2)"/>
      <line id="Line_139" data-name="Line 139" class="cls-3" x1="4.486" y2="10.093" transform="translate(43.253 6.166)"/>
      <path id="Path_601" data-name="Path 601" class="cls-3" d="M31.2,41.61a6.968,6.968,0,1,0,6.889-8.01,6.386,6.386,0,0,0-2.723.561,4.285,4.285,0,0,1,.24,5.126A4.683,4.683,0,0,1,31.2,41.61Z" transform="translate(-5.97 -6.447)"/>
    </g>
  </g>
</svg>
