<svg id="sadness" xmlns="http://www.w3.org/2000/svg" viewBox="0 0 44.811 44.811">
  <defs>
    <style>
      .cls-1 {
        fill: #ec6529;
      }

      .cls-2 {
        fill: none;
        stroke: #ec6529;
        stroke-width: 2px;
      }
    </style>
  </defs>
  <path id="Path_436" data-name="Path 436" class="cls-1" d="M22.406,0A22.406,22.406,0,1,0,44.811,22.406,22.432,22.432,0,0,0,22.406,0Zm0,42.389A19.928,19.928,0,0,1,8.326,36.575a20.267,20.267,0,0,1-3.618-4.9,19.793,19.793,0,0,1-2.286-9.265,19.991,19.991,0,0,1,38.014-8.614,19.76,19.76,0,0,1,1.953,8.614A20,20,0,0,1,22.406,42.389Z"/>
  <ellipse id="Ellipse_30" data-name="Ellipse 30" class="cls-1" cx="1.968" cy="1.968" rx="1.968" ry="1.968" transform="translate(13.625 15.896)"/>
  <ellipse id="Ellipse_31" data-name="Ellipse 31" class="cls-1" cx="1.968" cy="1.968" rx="1.968" ry="1.968" transform="translate(27.371 15.896)"/>
  <line id="Line_121" data-name="Line 121" class="cls-2" x2="22.632" transform="translate(11.209 30.421)"/>
</svg>
