<svg xmlns="http://www.w3.org/2000/svg" viewBox="0 0 44.811 44.811">
  <defs>
    <style>
      .cls-1 {
        fill: #ec6529;
      }

      .cls-2 {
        fill: #fff;
      }
    </style>
  </defs>
  <g id="happiness_over" transform="translate(-265.374 -189)">
    <circle id="Ellipse_413" data-name="Ellipse 413" class="cls-1" cx="20.5" cy="20.5" r="20.5" transform="translate(267 191)"/>
    <path id="Path_432" data-name="Path 432" class="cls-1" d="M22.406,0A22.406,22.406,0,1,0,44.811,22.406,22.431,22.431,0,0,0,22.406,0Zm0,42.389A19.98,19.98,0,1,1,42.389,22.406,19.92,19.92,0,0,1,22.406,42.389Z" transform="translate(265.374 189)"/>
    <path id="Path_433" data-name="Path 433" class="cls-2" d="M70.6,100.822a2.326,2.326,0,0,1,2.361,2.361H75.38a4.783,4.783,0,1,0-9.567,0h2.422A2.326,2.326,0,0,1,70.6,100.822Z" transform="translate(209.525 105.497)"/>
    <path id="Path_434" data-name="Path 434" class="cls-2" d="M171.77,100.822a2.326,2.326,0,0,1,2.361,2.361h2.422a4.783,4.783,0,1,0-9.567,0h2.422A2.326,2.326,0,0,1,171.77,100.822Z" transform="translate(123.667 105.497)"/>
    <path id="Path_435" data-name="Path 435" class="cls-2" d="M82.34,186.888a14.063,14.063,0,0,0,11.749-6.376L92.054,179.2a11.507,11.507,0,0,1-19.342,0l-2.034,1.315A14.065,14.065,0,0,0,80.771,186.8,13.654,13.654,0,0,0,82.34,186.888Z" transform="translate(205.397 36.931)"/>
  </g>
</svg>
