<svg id="happiness" xmlns="http://www.w3.org/2000/svg" viewBox="0 0 44.811 44.811">
  <defs>
    <style>
      .cls-1 {
        fill: #ec6529;
      }
    </style>
  </defs>
  <path id="Path_432" data-name="Path 432" class="cls-1" d="M22.406,0A22.406,22.406,0,1,0,44.811,22.406,22.431,22.431,0,0,0,22.406,0Zm0,42.389A19.98,19.98,0,1,1,42.389,22.406,19.92,19.92,0,0,1,22.406,42.389Z"/>
  <path id="Path_433" data-name="Path 433" class="cls-1" d="M70.6,100.822a2.326,2.326,0,0,1,2.361,2.361H75.38a4.783,4.783,0,1,0-9.567,0h2.422A2.326,2.326,0,0,1,70.6,100.822Z" transform="translate(-55.85 -83.503)"/>
  <path id="Path_434" data-name="Path 434" class="cls-1" d="M171.77,100.822a2.326,2.326,0,0,1,2.361,2.361h2.422a4.783,4.783,0,1,0-9.567,0h2.422A2.326,2.326,0,0,1,171.77,100.822Z" transform="translate(-141.707 -83.503)"/>
  <path id="Path_435" data-name="Path 435" class="cls-1" d="M82.34,186.888a14.063,14.063,0,0,0,11.749-6.376L92.054,179.2a11.507,11.507,0,0,1-19.342,0l-2.034,1.315A14.065,14.065,0,0,0,80.771,186.8,13.654,13.654,0,0,0,82.34,186.888Z" transform="translate(-59.977 -152.069)"/>
</svg>
