<svg xmlns="http://www.w3.org/2000/svg" viewBox="0 0 108.467 141.441">
  <defs>
    <style>
      .cls-1 {
        fill: #fff;
      }

      .cls-2 {
        fill: none;
        stroke: #fff;
        stroke-linecap: round;
        stroke-linejoin: round;
        stroke-miterlimit: 10;
        stroke-width: 5px;
      }
    </style>
  </defs>
  <g id="Group_900" data-name="Group 900" transform="translate(1.2 1.291)">
    <circle id="Ellipse_408" data-name="Ellipse 408" class="cls-1" cx="4.131" cy="4.131" r="4.131" transform="translate(48.996 11.086)"/>
    <path id="Path_782" data-name="Path 782" class="cls-2" d="M16.6,52.264,31.622,67.1l32.3-32.3" transform="translate(13.43 29.428)"/>
    <path id="Path_783" data-name="Path 783" class="cls-2" d="M81.858,12.8H96.88a7.934,7.934,0,0,1,7.887,7.887v98.96a7.934,7.934,0,0,1-7.887,7.887H9.187A7.934,7.934,0,0,1,1.3,119.647V20.875a7.934,7.934,0,0,1,7.887-7.887H23.834" transform="translate(0 10.117)"/>
    <path id="Path_784" data-name="Path 784" class="cls-2" d="M44.7,40.192H74.932c1.314-17.276-4.507-19.717-7.7-20.844-3.568-1.314-6.572-2.817-8.45-6.385-1.314-2.817-2.066-6.009-4.319-8.262A14.152,14.152,0,0,0,46.953,1.51C41.7.758,35.123,1.7,31.555,6.016a15.865,15.865,0,0,0-2.441,5.07c-1.69,4.695-4.695,6.76-9.2,8.262-3.38,1.127-9.2,3.568-7.7,20.844H44.7Z" transform="translate(9.367 0)"/>
  </g>
</svg>
