<svg xmlns="http://www.w3.org/2000/svg" viewBox="0 0 132.188 111.991">
  <defs>
    <style>
      .cls-1 {
        fill: none;
        stroke: #fff;
        stroke-linecap: round;
        stroke-linejoin: round;
        stroke-miterlimit: 10;
        stroke-width: 5px;
      }

      .cls-2 {
        fill: #fff;
      }
    </style>
  </defs>
  <g id="Group_1002" data-name="Group 1002" transform="translate(-121.99 -170.508)">
    <g id="Group_898" data-name="Group 898" transform="translate(122.875 171.708)">
      <path id="Path_781" data-name="Path 781" class="cls-1" d="M109.969,68.789c8.3-28.581-19.915-29.135-19.915-29.135,2.028-24.525-11.8-23.418-21.39-23.972S66.267,1.3,66.267,1.3C24.778,18.08,41.373,42.42,41.373,42.42S18.324,39.1,20.168,67.683c0,0-17.149,2.766-18.808,18.44C.068,99.03,8.551,107.881,21.274,108.066c29.319.184,58.823.738,87.957-.553a37.355,37.355,0,0,0,7.745-1.106c7.929-2.4,11.433-11.064,11.433-18.808C128.04,70.633,109.969,68.789,109.969,68.789Z" transform="translate(0.396 0)"/>
    </g>
    <path id="Path_854" data-name="Path 854" class="cls-2" d="M74.975,103.04a4.455,4.455,0,0,1,4.523,4.523h4.64a9.162,9.162,0,1,0-18.325,0h4.64A4.456,4.456,0,0,1,74.975,103.04Z" transform="translate(98.524 128.435)"/>
    <path id="Path_855" data-name="Path 855" class="cls-2" d="M176.149,103.04a4.455,4.455,0,0,1,4.523,4.523h4.64a9.162,9.162,0,1,0-18.325,0h4.64A4.455,4.455,0,0,1,176.149,103.04Z" transform="translate(26.688 128.435)"/>
    <path id="Path_856" data-name="Path 856" class="cls-2" d="M93.016,193.929a26.935,26.935,0,0,0,22.5-12.212l-3.9-2.518a22.04,22.04,0,0,1-37.049,0l-3.9,2.518a26.94,26.94,0,0,0,19.334,12.04A26.154,26.154,0,0,0,93.016,193.929Z" transform="translate(95.07 71.067)"/>
  </g>
</svg>
