<svg xmlns="http://www.w3.org/2000/svg" viewBox="0 0 122.215 120.243">
  <defs>
    <style>
      .cls-1 {
        fill: #fff;
      }
    </style>
  </defs>
  <g id="Group_928" data-name="Group 928" transform="translate(0.016 -0.025)">
    <g id="Group_923" data-name="Group 923" transform="translate(-0.016 0.025)">
      <g id="Group_920" data-name="Group 920" transform="translate(0 46.988)">
        <g id="Group_919" data-name="Group 919">
          <path id="Path_846" data-name="Path 846" class="cls-1" d="M17.123,101.288a4.467,4.467,0,0,1-2.013-.5c-.168-.168-.5-.168-.671-.5l-1.007-.839C10.412,96.423,1.018,87.029.85,86.693c-.168-.168-.336-.5-.5-.671a5.1,5.1,0,0,1,1.51-5.872,138.529,138.529,0,0,0,15.6-17.615c2.181-3.02,4.362-5.872,4.865-9.227a27.866,27.866,0,0,0,.336-7.381c-.168-7.046,3.02-12.414,9.395-15.937a16.572,16.572,0,0,1,5.368-1.678l.5-.168a5.207,5.207,0,0,1,3.523.5A5.23,5.23,0,0,1,43.461,32l.168.839a14.208,14.208,0,0,0,.671,2.852c1.678,4.026,4.7,6.207,9.227,6.878,3.187.5,4.53,1.678,5.033,4.865A11.233,11.233,0,0,0,67.787,56.5c.5,0,.839.168,1.174.168A4.654,4.654,0,0,1,72.819,62.2a18.425,18.425,0,0,1-9.73,13.589,17.258,17.258,0,0,1-6.878,1.678H55.54c-.671,0-1.342.168-2.013.168a34.928,34.928,0,0,0-6.039.839c-3.187.839-5.872,2.852-8.724,4.865l-.168.168a1.913,1.913,0,1,1-2.349-3.02l.336-.336c3.02-2.181,6.207-4.53,10.066-5.536a46.6,46.6,0,0,1,6.543-.839c.671,0,1.342-.168,2.013-.168h.839a13.305,13.305,0,0,0,5.368-1.174c4.53-2.516,7.046-6.039,7.717-10.737.168-.839,0-1.007-.839-1.174-.336,0-.671-.168-1.007-.168A15.144,15.144,0,0,1,54.7,48.108c-.336-1.51-.336-1.51-1.845-1.678A14.8,14.8,0,0,1,40.609,37.2,23.708,23.708,0,0,1,39.6,33.513l-.168-.671A7.054,7.054,0,0,0,39.1,32h-.5l-.5.168A15.382,15.382,0,0,0,33.9,33.513c-5.033,2.852-7.549,6.878-7.381,12.582a46.96,46.96,0,0,1-.5,8.22c-.839,4.194-3.187,7.549-5.536,10.737A138.958,138.958,0,0,1,4.205,83.338c-.671.671-.671,1.007-.671,1.342,1.678,1.678,9.562,9.562,12.247,12.414l.671.671c.336,0,.671,0,1.342-.671,2.013-2.013,4.026-4.026,6.207-6.039a1.9,1.9,0,0,1,2.684,2.684l-6.039,6.039A4.91,4.91,0,0,1,17.123,101.288Z" transform="translate(0.016 -28.034)"/>
        </g>
      </g>
      <g id="Group_922" data-name="Group 922" transform="translate(48.827)">
        <g id="Group_921" data-name="Group 921">
          <path id="Path_847" data-name="Path 847" class="cls-1" d="M61.989,68.765a17.878,17.878,0,0,1-15.77-9.395,13.487,13.487,0,0,1-1.51-4.362l-.168-.336A16.85,16.85,0,0,1,33.3,48.466a17.562,17.562,0,0,1-3.02-17.783,18.136,18.136,0,0,1,8.724-9.73c2.349-1.342,5.033-1.51,7.214-1.678h.336c.671,0,1.342-.168,2.013-.168a37.383,37.383,0,0,0,4.53-.5c3.187-.5,6.039-2.349,9.227-4.53a127.967,127.967,0,0,0,12.918-10.9,2.038,2.038,0,0,1,2.684,0,2.038,2.038,0,0,1,0,2.684,103.461,103.461,0,0,1-13.421,11.24c-2.852,2.013-6.543,4.53-10.9,5.2-1.678.336-3.355.336-5.033.5a6.29,6.29,0,0,0-1.845.168h-.336a15.72,15.72,0,0,0-5.7,1.174,14.5,14.5,0,0,0-6.878,7.717A13.912,13.912,0,0,0,45.213,50.647a3.022,3.022,0,0,1,2.852,2.516l.168.671a17.33,17.33,0,0,0,1.174,3.523A13.852,13.852,0,0,0,64.673,64.4c5.536-1.174,11.072-6.543,10.737-13.589a32.138,32.138,0,0,1,.5-8.388c.671-4.194,3.187-7.549,5.536-10.737l.168-.168A147.5,147.5,0,0,1,97.722,13.4c.671-.671.839-1.007.671-1.51L89.67,3.338a1.744,1.744,0,0,1,0-2.684,1.744,1.744,0,0,1,2.684,0l9.227,9.227c.168.168.336.5.5.671q1.258,3.271-1.51,6.039a127.933,127.933,0,0,0-15.6,17.615l-.168.168c-2.181,3.02-4.194,5.7-4.7,9.059a35.119,35.119,0,0,0-.336,7.549c.336,9.395-6.878,16.105-13.756,17.615C64.505,68.6,63.331,68.765,61.989,68.765Z" transform="translate(-29.088 -0.025)"/>
        </g>
      </g>
    </g>
    <g id="Group_925" data-name="Group 925" transform="translate(34.738 60.209)">
      <g id="Group_924" data-name="Group 924">
        <path id="Path_848" data-name="Path 848" class="cls-1" d="M31.772,48.985c-8.891,0-11.072-7.214-11.072-11.072a2.013,2.013,0,1,1,4.026,0c0,.839.336,7.214,7.214,7.214a2.04,2.04,0,0,1,2.013,2.013A2.487,2.487,0,0,1,31.772,48.985Z" transform="translate(-20.7 -35.9)"/>
      </g>
    </g>
    <g id="Group_927" data-name="Group 927" transform="translate(74.586 49.324)">
      <g id="Group_926" data-name="Group 926">
        <path id="Path_849" data-name="Path 849" class="cls-1" d="M51.913,36.1a10.666,10.666,0,0,1-6.71-2.349,1.913,1.913,0,1,1,2.349-3.02c.5.336,4.865,3.691,8.724-.671a1.9,1.9,0,1,1,2.852,2.516A9.038,9.038,0,0,1,51.913,36.1Z" transform="translate(-44.453 -29.411)"/>
      </g>
    </g>
  </g>
</svg>
