<svg xmlns="http://www.w3.org/2000/svg" viewBox="0 0 117 117">
  <defs>
    <style>
      .cls-1 {
        fill: #fff;
        stroke: #ccc;
      }

      .cls-2 {
        fill: #707070;
        font-size: 10px;
        font-family: Montserrat-Bold, Montserrat;
        font-weight: 700;
        letter-spacing: 0.1em;
      }

      .cls-3 {
        fill: #ec6529;
      }

      .cls-4 {
        stroke: none;
      }

      .cls-5 {
        fill: none;
      }
    </style>
  </defs>
  <g id="Group_647" data-name="Group 647" transform="translate(-50 -317)">
    <g id="Rectangle_1409" data-name="Rectangle 1409" class="cls-1" transform="translate(50 317)">
      <rect class="cls-4" width="117" height="117" rx="5"/>
      <rect class="cls-5" x="0.5" y="0.5" width="116" height="116" rx="4.5"/>
    </g>
    <text id="JOINT_MOBILITY_COMFORT" data-name="JOINT MOBILITY &amp; COMFORT" class="cls-2" transform="translate(57 391.938)"><tspan x="3.738" y="10">JOINT MOBILITY </tspan><tspan x="17.038" y="24">&amp; COMFORT</tspan></text>
    <g id="Group_703" data-name="Group 703" transform="translate(79.055 325.875)">
      <g id="Group_698" data-name="Group 698" transform="translate(-0.055 0.125)">
        <g id="Group_695" data-name="Group 695" transform="translate(0 23.784)">
          <g id="Group_694" data-name="Group 694">
            <path id="Path_602" data-name="Path 602" class="cls-3" d="M8.807,68.92a2.707,2.707,0,0,1-1.074-.23,1.059,1.059,0,0,1-.307-.23l-.537-.537L.371,61.4a1.677,1.677,0,0,1-.23-.383,2.581,2.581,0,0,1,.767-2.991,73.7,73.7,0,0,0,8.053-9.05c1.15-1.611,2.224-2.991,2.531-4.755a21.892,21.892,0,0,0,.23-3.835,8.661,8.661,0,0,1,4.832-8.207,11.687,11.687,0,0,1,2.761-.92l.23-.077a2.284,2.284,0,0,1,1.764.307,2.674,2.674,0,0,1,1.074,1.764l.077.383a8.09,8.09,0,0,0,.383,1.457,5.435,5.435,0,0,0,4.679,3.528c1.687.23,2.3.844,2.608,2.531a5.789,5.789,0,0,0,4.755,4.679c.23,0,.46.077.614.077a2.337,2.337,0,0,1,1.917,2.914A9.335,9.335,0,0,1,32.43,55.8a8.493,8.493,0,0,1-3.528.844h-.383c-.383,0-.69.077-1.074.077a19.728,19.728,0,0,0-3.068.383,13.035,13.035,0,0,0-4.448,2.531l-.23.153a.99.99,0,0,1-1.15-1.611l.23-.153a15.262,15.262,0,0,1,5.139-2.838,17.8,17.8,0,0,1,3.375-.46c.307,0,.69-.077,1-.077h.383a6.616,6.616,0,0,0,2.761-.614,7.23,7.23,0,0,0,3.988-5.522c.077-.46,0-.537-.383-.614-.153,0-.307-.077-.46-.077a7.739,7.739,0,0,1-6.443-6.289c-.153-.767-.153-.767-.92-.844a7.506,7.506,0,0,1-6.289-4.679,8.09,8.09,0,0,1-.46-1.841l-.077-.383a.8.8,0,0,0-.23-.46H19.7a6.994,6.994,0,0,0-6.059,7.133,26.889,26.889,0,0,1-.23,4.218,13.555,13.555,0,0,1-2.838,5.522,66.384,66.384,0,0,1-8.283,9.28c-.307.307-.383.46-.307.69.92.92,4.909,4.909,6.289,6.366l.307.307c.153.077.383,0,.69-.383l3.145-3.145A.976.976,0,0,1,13.793,64.7c-1.074,1-2.071,2.071-3.145,3.068A2.169,2.169,0,0,1,8.807,68.92Z" transform="translate(0.055 -31.135)"/>
          </g>
        </g>
        <g id="Group_697" data-name="Group 697" transform="translate(25.11)">
          <g id="Group_696" data-name="Group 696">
            <path id="Path_603" data-name="Path 603" class="cls-3" d="M49.493,35.233A9.058,9.058,0,0,1,41.44,30.4a13.175,13.175,0,0,1-.844-2.224v-.153a8.65,8.65,0,0,1-5.752-3.145,8.86,8.86,0,0,1-1.534-9.05,9.321,9.321,0,0,1,4.448-4.985A8.367,8.367,0,0,1,41.517,10h.23c.307,0,.69-.077,1-.077a22.722,22.722,0,0,0,2.378-.23,10.692,10.692,0,0,0,4.755-2.378,54.78,54.78,0,0,0,6.6-5.6A.976.976,0,0,1,57.853,3.1a59.324,59.324,0,0,1-6.826,5.829,12.332,12.332,0,0,1-5.6,2.684c-.844.153-1.687.153-2.531.23-.307,0-.69.077-1,.077h-.23a7.066,7.066,0,0,0-2.914.614,7.225,7.225,0,0,0-3.528,3.912,6.922,6.922,0,0,0,1.227,7.133,6.717,6.717,0,0,0,4.679,2.454,1.6,1.6,0,0,1,1.457,1.3l.077.383a10.349,10.349,0,0,0,.614,1.841,7.082,7.082,0,0,0,13.345-3.375,18.584,18.584,0,0,1,.23-4.3,13.577,13.577,0,0,1,2.761-5.445l.077-.077A70.58,70.58,0,0,1,67.9,7.085a1.036,1.036,0,0,0,.383-.767L63.759,1.793A.976.976,0,0,1,65.139.413l4.755,4.755a1.677,1.677,0,0,1,.23.383,2.676,2.676,0,0,1-.767,3.068,71.562,71.562,0,0,0-7.976,8.974l-.077.077c-1.074,1.534-2.148,2.914-2.454,4.6a19.668,19.668,0,0,0-.153,3.835,8.951,8.951,0,0,1-7.056,8.974A10.867,10.867,0,0,1,49.493,35.233Z" transform="translate(-32.685 -0.125)"/>
          </g>
        </g>
      </g>
      <g id="Group_700" data-name="Group 700" transform="translate(17.781 30.938)">
        <g id="Group_699" data-name="Group 699">
          <path id="Path_604" data-name="Path 604" class="cls-3" d="M28.876,46.973A5.472,5.472,0,0,1,23.2,41.3a1,1,0,1,1,1.994,0,3.549,3.549,0,0,0,3.681,3.681,1,1,0,0,1,0,1.994Z" transform="translate(-23.2 -40.3)"/>
        </g>
      </g>
      <g id="Group_702" data-name="Group 702" transform="translate(38.198 25.317)">
        <g id="Group_701" data-name="Group 701">
          <path id="Path_605" data-name="Path 605" class="cls-3" d="M53.64,36.445a5.634,5.634,0,0,1-3.451-1.227.982.982,0,1,1,1.227-1.534,3.183,3.183,0,0,0,4.525-.383A.978.978,0,1,1,57.4,34.6,4.89,4.89,0,0,1,53.64,36.445Z" transform="translate(-49.821 -32.971)"/>
        </g>
      </g>
    </g>
  </g>
</svg>
