<svg id="Layer_1" data-name="Layer 1" xmlns="http://www.w3.org/2000/svg" xmlns:xlink="http://www.w3.org/1999/xlink" viewBox="0 0 79 85"><defs><style>.cls-1{fill:none;}.cls-2{fill:#f5bb35;}.cls-3{fill:#ee8036;}.cls-4{clip-path:url(#clip-path);}.cls-5{fill:#89d1d9;}.cls-6{fill:#48b37c;}.cls-7{fill:#bed145;}.cls-8{fill:#43c1cc;}.cls-9{fill:#109198;}.cls-10{fill:#e1e561;}.cls-11{fill:#ea5628;}.cls-12{fill:#66676a;}</style><clipPath id="clip-path" transform="translate(0.2 -0.71)"><rect class="cls-1" x="-0.2" y="0.71" width="600" height="648"/></clipPath></defs><title>youngevity-white</title><polygon class="cls-2" points="52.05 0 62.96 9.38 73.9 0 52.05 0"/><polygon class="cls-3" points="28.67 0 51.27 19.41 59.66 12.21 45.44 0 28.67 0"/><g class="cls-4"><path class="cls-5" d="M-.2,45A23.53,23.53,0,0,0,8,62.87l1.15,1V15.59l-9.36-8Z" transform="translate(0.2 -0.71)"/><polygon class="cls-6" points="44.2 50.5 79.36 20.32 79.31 7.3 44.2 37.44 44.2 50.5"/><polygon class="cls-7" points="44.2 68.41 79.42 38.17 79.38 25.96 44.2 56.17 44.2 68.41"/><polygon class="cls-8" points="13.65 66.85 22.48 74.44 22.48 26.16 13.65 18.57 13.65 66.85"/><polygon class="cls-9" points="26.78 78.13 35.6 85.72 35.6 37.44 26.78 29.86 26.78 78.13"/><path class="cls-10" d="M44,74.79V86.43L71,63.22a23.54,23.54,0,0,0,8.21-18v-.71Z" transform="translate(0.2 -0.71)"/><polygon class="cls-11" points="22.25 0 5.8 0 28.93 19.88 39.9 29.32 48.13 22.25 22.25 0"/></g></svg>