<svg xmlns="http://www.w3.org/2000/svg" viewBox="0 0 117 117">
  <defs>
    <style>
      .cls-1, .cls-3 {
        fill: #fff;
      }

      .cls-1 {
        stroke: #ccc;
      }

      .cls-2 {
        fill: #707070;
        font-size: 10px;
        font-family: Montserrat-Bold, Montserrat;
        font-weight: 700;
        letter-spacing: 0.1em;
      }

      .cls-3 {
        fill-rule: evenodd;
      }

      .cls-4 {
        fill: #ec6529;
        stroke: #ec6529;
        stroke-linecap: round;
        stroke-miterlimit: 10;
      }

      .cls-5 {
        stroke: none;
      }

      .cls-6 {
        fill: none;
      }
    </style>
  </defs>
  <g id="Group_680" data-name="Group 680" transform="translate(24.3 12.643)">
    <g id="Group_633" data-name="Group 633" transform="translate(-74.3 -329.643)">
      <g id="Rectangle_1409" data-name="Rectangle 1409" class="cls-1" transform="translate(50 317)">
        <rect class="cls-5" width="117" height="117" rx="5"/>
        <rect class="cls-6" x="0.5" y="0.5" width="116" height="116" rx="4.5"/>
      </g>
      <text id="MEN_S_HEALTH" data-name="MEN’S HEALTH" class="cls-2" transform="translate(75 394.938)"><tspan x="15.003" y="10">MEN’S </tspan><tspan x="9.973" y="24">HEALTH</tspan></text>
    </g>
    <path id="Path_565" data-name="Path 565" class="cls-3" d="M42.1,44.7Z" transform="translate(-6.873 -7.361)"/>
    <path id="Path_566" data-name="Path 566" class="cls-3" d="M54.6,57.5h0Z" transform="translate(-8.948 -9.486)"/>
    <path id="Path_567" data-name="Path 567" class="cls-3" d="M6.5,56.283c.083,0,.083,0,.167-.083-.083.083-.083.083-.167.083Z" transform="translate(-0.963 -9.27)"/>
    <path id="Path_568" data-name="Path 568" class="cls-3" d="M43.188,13.1Z" transform="translate(-7.043 -2.115)"/>
    <path id="Path_569" data-name="Path 569" class="cls-3" d="M41.9,14.5c.083,0,.083,0,.167.083,0-.083-.083-.083-.167-.083Z" transform="translate(-6.84 -2.348)"/>
    <path id="Path_570" data-name="Path 570" class="cls-4" d="M51.99,46.846a44.317,44.317,0,0,1-4.754-1.918c-3.169-1.835-2.419-7.923-2.168-10.091l.083-.5a16.041,16.041,0,0,0,1-2.085c.167-.5.334-1.084.5-1.585.083,0,.083.083.167.083a1.652,1.652,0,0,0,1.751-.25,4.889,4.889,0,0,0,1.168-1.585,16.116,16.116,0,0,0,1.418-4.42,8.8,8.8,0,0,0,.167-2.5,3.986,3.986,0,0,0-.5-1.5,2.562,2.562,0,0,0-1.251-.834h-.167c.167-2,.584-8.757-.667-12.26C47.9,4.813,45.4,2.811,42.233,1.644A20.884,20.884,0,0,0,33.643.393a17.746,17.746,0,0,0-8.34,2.5,11.192,11.192,0,0,0-5.087,7.756,14.924,14.924,0,0,0-.083,4.337,32.742,32.742,0,0,0,.751,4.587,2.635,2.635,0,0,0-1.168,1.168,4.161,4.161,0,0,0-.417,2.419,27.041,27.041,0,0,0,1.585,5.5,6.523,6.523,0,0,0,1,1.585,1.4,1.4,0,0,0,1.668.25c.083-.083.167-.083.25-.167a17.688,17.688,0,0,0,1.418,3.336h0a38.044,38.044,0,0,1,.25,5.5,12.72,12.72,0,0,1-.584,3.5,3.487,3.487,0,0,1-.917,1.418,5.342,5.342,0,0,1-1.835.917c-1,.334-2.419.667-4.337,1.084-1.251.334-2.752.667-4.587,1.084A39.571,39.571,0,0,0,.7,53.518c.167.25.417.584.584.834a36.452,36.452,0,0,1,12.26-6c1.751-.417,3.253-.834,4.5-1.084,1.668-.417,2.919-.667,4-1a15.213,15.213,0,0,0,5.671,6.255,13.768,13.768,0,0,0,5.671,1.835,13.542,13.542,0,0,0,6.172-1,17.694,17.694,0,0,0,7.673-7.172,43.421,43.421,0,0,0,4.42,1.668c4.42,1.585,10.675,3.836,15.1,6.839.167-.25.417-.584.584-.834C62.749,50.766,56.494,48.514,51.99,46.846ZM21.216,10.985A9.834,9.834,0,0,1,25.887,3.9a16.583,16.583,0,0,1,7.84-2.335A20.268,20.268,0,0,1,41.9,2.728c2.836,1.084,5.087,2.836,5.921,5.087,1.168,3.419.667,10.341.584,12.009a2.535,2.535,0,0,0-1.084,1l-2-7.423-.334-.083c-.083,0-16.847-3.92-19.349-2.252h0c-1.334,1.251-1.918,6.505-2.085,9.174-.083-.083-.25-.167-.334-.25a2.247,2.247,0,0,0-1.251-.417,23.063,23.063,0,0,1-.751-4.5A13.4,13.4,0,0,1,21.216,10.985Zm3.419,18.181-.167-1.084h-.25l-.5.917a3.319,3.319,0,0,1-.584.751c-.167.083-.25,0-.417-.083a4.078,4.078,0,0,1-.751-1.251,26.928,26.928,0,0,1-1.5-5.254,3.326,3.326,0,0,1,.25-1.751,1.2,1.2,0,0,1,.917-.751,1.221,1.221,0,0,1,1,.167,3.387,3.387,0,0,1,.917,1.251l.417.751c.167,0,.334-.083.5-.083V21.91s.334-8.423,1.835-9.925c2.085-1.251,15.929,1.835,18.181,2.335l2.335,9.257h.417l.417-1.084c.25-.751.5-1.418,1.084-1.668h.667c.25.083.5.167.584.417a2.814,2.814,0,0,1,.334,1,6.832,6.832,0,0,1-.167,2.168,14.346,14.346,0,0,1-1.334,4.17,3.362,3.362,0,0,1-.917,1.168.851.851,0,0,1-.751.167,1.745,1.745,0,0,1-.5-.334l-.667-.667-.167.917a14.434,14.434,0,0,1-.667,2.252,21.327,21.327,0,0,1-.917,2c-.25.417-3.836,6.255-9.341,5.921C29.806,39.674,25.386,33.836,24.636,29.166ZM39.064,52.351a11.174,11.174,0,0,1-5.671.917,11.58,11.58,0,0,1-5.171-1.751,14.351,14.351,0,0,1-5.254-5.671,5.666,5.666,0,0,0,1.585-.917A4.488,4.488,0,0,0,25.8,43.177a12.757,12.757,0,0,0,.667-3.92,23.661,23.661,0,0,0-.083-3.5c1.418,2,4.17,4.921,8.257,5.087,4.337.25,7.506-2.836,9.174-4.837-.25,2.836-.334,7.423,2.5,9.424C44.151,49.1,41.649,51.266,39.064,52.351Z" transform="translate(0 0)"/>
  </g>
</svg>
