<svg xmlns="http://www.w3.org/2000/svg" viewBox="0 0 117 117">
  <defs>
    <style>
      .cls-1, .cls-6 {
        fill: #fff;
      }

      .cls-1 {
        stroke: #ccc;
      }

      .cls-2 {
        fill: #707070;
        font-size: 10px;
        font-family: Montserrat-Bold, Montserrat;
        font-weight: 700;
        letter-spacing: 0.1em;
      }

      .cls-3, .cls-5, .cls-8 {
        fill: none;
      }

      .cls-3, .cls-5, .cls-6 {
        stroke: #ec6529;
        stroke-miterlimit: 10;
      }

      .cls-3 {
        stroke-width: 2.5px;
      }

      .cls-4 {
        fill: #ec6529;
      }

      .cls-5, .cls-6 {
        stroke-width: 2px;
      }

      .cls-7 {
        stroke: none;
      }
    </style>
  </defs>
  <g id="Group_660" data-name="Group 660" transform="translate(-206 -456)">
    <g id="Rectangle_1412" data-name="Rectangle 1412" class="cls-1" transform="translate(206 456)">
      <rect class="cls-7" width="117" height="117" rx="5"/>
      <rect class="cls-8" x="0.5" y="0.5" width="116" height="116" rx="4.5"/>
    </g>
    <text id="MENTAL_FOCUS_MEMORY" data-name="MENTAL FOCUS &amp; MEMORY" class="cls-2" transform="translate(216 531.938)"><tspan x="3.533" y="10">MENTAL FOCUS </tspan><tspan x="17.103" y="24">&amp; MEMORY</tspan></text>
    <g id="Group_704" data-name="Group 704" transform="translate(240.014 467.003)">
      <path id="Path_606" data-name="Path 606" class="cls-3" d="M46.1,37.1" transform="translate(-8.96 -7.209)"/>
      <path id="Path_607" data-name="Path 607" class="cls-3" d="M19.7,26.9" transform="translate(-3.83 -5.227)"/>
      <path id="Path_608" data-name="Path 608" class="cls-4" d="M48.743,19.336a30.194,30.194,0,0,0-1.128-5.64,19.7,19.7,0,0,0-2.981-5.962C41.33,3.383,35.932.805,28.68.16,22.4-.4,17.4.483,13.372,2.9A20.759,20.759,0,0,0,5.96,11.118c-2.5,4.512-2.82,8.863-.967,12.972a2.708,2.708,0,0,1-.322,2.739,22.438,22.438,0,0,1-1.934,2.82A31.7,31.7,0,0,0,.158,33.517a1.968,1.968,0,0,0,.081,1.773A7.4,7.4,0,0,0,4.59,37.868h.161l.081.242a23.964,23.964,0,0,1,1.531,6.929c.161,1.45.4,2.578,1.209,3.3s1.934.725,3.384.806a21.837,21.837,0,0,0,2.5-.161c1.289-.081,2.659-.161,3.384-.161a2.486,2.486,0,0,1,2.578,1.611c.967,2.014,1.934,4.029,2.9,5.962l.081.161c.4.806.806,1.611,1.128,2.417a1.434,1.434,0,0,0,.886.645h0a1.055,1.055,0,0,0,.967-.483c4.351-6.365,8.138-11.441,14.744-13.7a1.087,1.087,0,0,0,.725-1.209c-.645-4.593-.161-6.607,2.578-10.635,1.45-2.175,2.82-4.512,3.948-6.607A12.061,12.061,0,0,0,48.743,19.336ZM45.52,25.943h0c-1.128,2.095-2.417,4.27-3.787,6.365-2.9,4.19-3.545,6.687-3.142,11.038v.322l-.242.081c-6.043,2.417-9.91,7.171-13.214,12.005l-.4.564-.4-.806c-.967-1.934-1.934-3.948-2.9-5.962a4.741,4.741,0,0,0-4.593-2.9c-.806,0-2.256.081-3.545.161-1.209.081-2.014.161-2.256.161a7.712,7.712,0,0,1-2.014-.242L8.86,46.65l-.081-.081A4.276,4.276,0,0,1,8.457,44.8a43.367,43.367,0,0,0-.806-4.673c-.483-2.095-1.128-4.109-2.578-4.27a7.685,7.685,0,0,1-2.739-1.209L2.092,34.4l.322-.4c.483-.806,1.37-2.014,2.095-3.062A26.383,26.383,0,0,0,6.6,27.877a5.041,5.041,0,0,0,.322-4.754c-1.531-3.465-1.209-7.01.967-10.958A18.5,18.5,0,0,1,14.5,4.834c3.626-2.175,8.138-2.981,13.939-2.417a24.29,24.29,0,0,1,9.1,2.417A15.108,15.108,0,0,1,42.78,9.1c2.5,3.3,3.3,7.171,3.706,10.555A10.054,10.054,0,0,1,45.52,25.943Z"/>
      <line id="Line_140" data-name="Line 140" class="cls-3" y1="7.493" x2="19.82" transform="translate(15.225 16.194)"/>
      <line id="Line_141" data-name="Line 141" class="cls-3" x1="2.739" y2="20.868" transform="translate(24.088 9.265)"/>
      <path id="Path_609" data-name="Path 609" class="cls-3" d="M48.7,21.1" transform="translate(-9.465 -4.1)"/>
      <line id="Line_142" data-name="Line 142" class="cls-3" x2="16.678" y2="13.214" transform="translate(16.917 13.374)"/>
      <path id="Path_610" data-name="Path 610" class="cls-5" d="M18.6,25.7" transform="translate(-3.617 -4.994)"/>
      <path id="Path_611" data-name="Path 611" class="cls-5" d="M32.4,13.7" transform="translate(-6.298 -2.662)"/>
      <path id="Path_612" data-name="Path 612" class="cls-5" d="M19.6,13.7" transform="translate(-3.811 -2.662)"/>
      <path id="Path_613" data-name="Path 613" class="cls-5" d="M46.5,37.3" transform="translate(-9.037 -7.248)"/>
      <path id="Path_614" data-name="Path 614" class="cls-5" d="M31.7,37.6" transform="translate(-6.162 -7.306)"/>
      <path id="Path_615" data-name="Path 615" class="cls-5" d="M32.5,13.1" transform="translate(-6.317 -2.546)"/>
      <path id="Path_616" data-name="Path 616" class="cls-5" d="M20.1,25.2" transform="translate(-3.908 -4.897)"/>
      <circle id="Ellipse_392" data-name="Ellipse 392" class="cls-6" cx="2.901" cy="2.901" r="2.901" transform="translate(22.396 17)"/>
      <circle id="Ellipse_393" data-name="Ellipse 393" class="cls-6" cx="1.692" cy="1.692" r="1.692" transform="translate(24.894 8.218)"/>
      <circle id="Ellipse_394" data-name="Ellipse 394" class="cls-6" cx="1.692" cy="1.692" r="1.692" transform="translate(33.918 14.341)"/>
      <circle id="Ellipse_395" data-name="Ellipse 395" class="cls-6" cx="1.692" cy="1.692" r="1.692" transform="translate(15.225 12.085)"/>
      <circle id="Ellipse_396" data-name="Ellipse 396" class="cls-6" cx="1.692" cy="1.692" r="1.692" transform="translate(13.533 21.915)"/>
      <circle id="Ellipse_397" data-name="Ellipse 397" class="cls-6" cx="1.692" cy="1.692" r="1.692" transform="translate(22.315 28.038)"/>
      <circle id="Ellipse_398" data-name="Ellipse 398" class="cls-6" cx="1.692" cy="1.692" r="1.692" transform="translate(31.823 24.976)"/>
    </g>
  </g>
</svg>
