<svg id="really_poor_over" xmlns="http://www.w3.org/2000/svg" viewBox="0 0 44.811 44.811">
  <defs>
    <style>
      .cls-1 {
        fill: #ec6529;
      }

      .cls-2 {
        fill: #fff;
      }

      .cls-3 {
        fill: none;
        stroke: #fff;
        stroke-width: 2px;
      }
    </style>
  </defs>
  <circle id="Ellipse_416" data-name="Ellipse 416" class="cls-1" cx="20.5" cy="20.5" r="20.5" transform="translate(2.231 2)"/>
  <path id="Path_436" data-name="Path 436" class="cls-1" d="M22.406,0A22.406,22.406,0,1,0,44.811,22.406,22.432,22.432,0,0,0,22.406,0Zm0,42.389A19.928,19.928,0,0,1,8.326,36.575a20.267,20.267,0,0,1-3.618-4.9,19.793,19.793,0,0,1-2.286-9.265,19.991,19.991,0,0,1,38.014-8.614,19.76,19.76,0,0,1,1.953,8.614A20,20,0,0,1,22.406,42.389Z"/>
  <path id="Path_437" data-name="Path 437" class="cls-2" d="M82.448,179.2A14.047,14.047,0,0,0,70.7,185.573l2.029,1.317a11.514,11.514,0,0,1,19.347,0l2.029-1.317a14.051,14.051,0,0,0-10.1-6.283A13.466,13.466,0,0,0,82.448,179.2Z" transform="translate(-59.997 -152.071)"/>
  <ellipse id="Ellipse_30" data-name="Ellipse 30" class="cls-2" cx="1.968" cy="1.968" rx="1.968" ry="1.968" transform="translate(13.625 15.896)"/>
  <ellipse id="Ellipse_31" data-name="Ellipse 31" class="cls-2" cx="1.968" cy="1.968" rx="1.968" ry="1.968" transform="translate(27.371 15.896)"/>
  <path id="Path_439" data-name="Path 439" class="cls-3" d="M11.154,18.261l7.785-5.594" transform="translate(-1.057 -1.2)"/>
  <path id="Path_440" data-name="Path 440" class="cls-3" d="M0,5.594,7.785,0" transform="translate(30.761 9.494) rotate(60)"/>
</svg>
