<svg xmlns="http://www.w3.org/2000/svg" viewBox="0 0 117 117">
  <defs>
    <style>
      .cls-1 {
        fill: #fff;
        stroke: #ccc;
      }

      .cls-2 {
        fill: #707070;
        font-size: 10px;
        font-family: Montserrat-Bold, Montserrat;
        font-weight: 700;
        letter-spacing: 0.1em;
      }

      .cls-3 {
        fill: #ec6529;
        stroke: #ec6529;
        stroke-linecap: round;
        stroke-linejoin: round;
        stroke-miterlimit: 10;
      }

      .cls-4 {
        stroke: none;
      }

      .cls-5 {
        fill: none;
      }
    </style>
  </defs>
  <g id="Group_1004" data-name="Group 1004" transform="translate(-199 -293)">
    <g id="Group_636" data-name="Group 636" transform="translate(-8 -24)">
      <g id="Rectangle_1410" data-name="Rectangle 1410" class="cls-1" transform="translate(207 317)">
        <rect class="cls-4" width="117" height="117" rx="5"/>
        <rect class="cls-5" x="0.5" y="0.5" width="116" height="116" rx="4.5"/>
      </g>
      <text id="WOMEN_S_HEALTH" data-name="WOMEN’S HEALTH" class="cls-2" transform="translate(218 392.938)"><tspan x="18.473" y="10">WOMEN’S </tspan><tspan x="23.973" y="24">HEALTH</tspan></text>
    </g>
    <path id="Path_571" data-name="Path 571" class="cls-3" d="M.5,53.9a18.55,18.55,0,0,1,2.077-4.077c1.308-1.846,5.846-3.846,9.77-5.385V42.981c-.154-5.616-.385-19.693,2.308-29,1.615-5.385,3.308-8.616,5.308-10.462a9.162,9.162,0,0,1,6.846-2.385A10.779,10.779,0,0,1,28.963.671,10.965,10.965,0,0,1,37.656,3.21c2.539,2.154,4.616,5.539,6.077,10.462a50.541,50.541,0,0,1,1.615,8c.923,7,.769,17.77.615,22.847.538.231,1.077.462,1.692.692,2.616,1.154,5.923,2.539,7.923,5a8.391,8.391,0,0,1,1.462,3,8.148,8.148,0,0,1-.769.923A7.668,7.668,0,0,0,54.81,50.9c-1.846-2.308-5-3.692-7.539-4.769-.462-.154-.846-.385-1.308-.538-.538-.231-.692-.308-.923-.385-.923-.462-2-.923-3-1.462a1.928,1.928,0,0,1-.538-.308c-.692,2.385-3.923,10.77-12.847,10.385a11.6,11.6,0,0,1-7.539-3.154,13.358,13.358,0,0,1-3.539-7.154c-.692.308-1.615.615-2.692,1.077C10.808,46.135,4.731,48.443,3.269,50.52A16.063,16.063,0,0,0,1.115,54.9a3.162,3.162,0,0,0-.615-1Zm12.77-9.847c.462-.154.923-.385,1.385-.538,1.385-.538,2.539-.923,3.154-1.231a9.559,9.559,0,0,0,2.769-1.769,6.2,6.2,0,0,0,1.385-2c.692-1.385.538-5.846.538-6.77a14.292,14.292,0,0,1-2.923-5.462.849.849,0,0,1-.615,0,1.364,1.364,0,0,1-.769-.615A6.982,6.982,0,0,1,17.5,23.9a16.356,16.356,0,0,1-.615-3.923c0-1.077.154-1.846.615-2.154a1.4,1.4,0,0,1,1.539,0c.308-1.539,1.231-5,2.692-6.923a13.357,13.357,0,0,1,3.616-3.462l.385-.231.231.308A13.453,13.453,0,0,0,31.809,11.6a13.139,13.139,0,0,1,5.385,3.154,10.342,10.342,0,0,1,2.462,3.769,3.346,3.346,0,0,1,.462-.538,1.3,1.3,0,0,1,.769-.231.808.808,0,0,1,.692.385,3.165,3.165,0,0,1,.462,1.846,19.76,19.76,0,0,1-.846,4.616,3.209,3.209,0,0,1-.692,1.231.986.986,0,0,1-1.231.308c-.077,0-.154-.077-.231-.154a18.254,18.254,0,0,1-2.769,5.308l-.308.462a16.566,16.566,0,0,0,.154,4.539A6.261,6.261,0,0,0,38.04,39.52a20.553,20.553,0,0,0,4.539,3.154c.846.462,1.769.923,2.616,1.308.154-5.231.231-15.539-.615-22.309a50.23,50.23,0,0,0-1.615-7.847c-1.385-4.693-3.385-8-5.77-10a9.76,9.76,0,0,0-7.923-2.308c-.769.154-1.462.308-2.231.538h-.154A8.674,8.674,0,0,0,20.578,4.21c-1.846,1.769-3.539,4.846-5.077,10-2.692,9.231-2.385,23.155-2.308,28.694a6.644,6.644,0,0,1,.077,1.154Zm5.308-1.077a11.78,11.78,0,0,0,3.385,6.846,10.8,10.8,0,0,0,6.846,2.923c8.539.385,11.385-8,11.924-9.924a14.956,14.956,0,0,1-3.385-2.539A7.1,7.1,0,0,1,35.194,36.6a18.291,18.291,0,0,1-.231-3.769C33.732,33.9,31.425,35.6,29.117,35.6a6.12,6.12,0,0,1-3.308-1A12.134,12.134,0,0,1,23.5,32.75c0,1.769,0,4.923-.615,6.154a7.684,7.684,0,0,1-1.539,2.231,10.165,10.165,0,0,1-2.769,1.846Zm7.693-9.154a6.02,6.02,0,0,0,2.846.846c4.539.077,8.308-5.846,9.231-9.693l.231-1.077c.154.231.769,1.769,1.231,1.308a3.383,3.383,0,0,0,.462-.923,13.692,13.692,0,0,0,.769-4.308,2.282,2.282,0,0,0-.308-1.308c-.462-.385-1.231,2-1.462,2.846l-.385-1.692a8.956,8.956,0,0,0-2.539-4.462,11.787,11.787,0,0,0-5-2.923A15.176,15.176,0,0,1,25.27,8.364a14.779,14.779,0,0,0-3,3c-1.692,2.308-2.616,7.231-2.692,7.308l-.154.923-.615-.615s-.615-.615-1-.308a2.258,2.258,0,0,0-.231,1.308,15.824,15.824,0,0,0,.615,3.769,4.127,4.127,0,0,0,.538,1.462c.077.077.154.308.308.231l.231-.231.692-.769.154,1a15.285,15.285,0,0,0,6.154,8.385Z" transform="translate(228.5 305.424)"/>
  </g>
</svg>
